<svg width="73" height="64" viewBox="0 0 73 64" fill="none" xmlns="http://www.w3.org/2000/svg">
<path d="M2.98331 11.6726H70.1599C71.5869 11.6726 72.7436 10.5159 72.7436 9.0889V2.62961C72.7436 1.20259 71.5869 0.0458984 70.1599 0.0458984H2.98331C1.55629 0.0458984 0.399597 1.20259 0.399597 2.62961V9.0889C0.399597 10.5159 1.55629 11.6726 2.98331 11.6726ZM2.98331 37.5098H70.1599C71.5869 37.5098 72.7436 36.3531 72.7436 34.926V28.4668C72.7436 27.0397 71.5869 25.883 70.1599 25.883H2.98331C1.55629 25.883 0.399597 27.0397 0.399597 28.4668V34.926C0.399597 36.3531 1.55629 37.5098 2.98331 37.5098ZM2.98331 63.3469H70.1599C71.5869 63.3469 72.7436 62.1902 72.7436 60.7632V54.3039C72.7436 52.8769 71.5869 51.7202 70.1599 51.7202H2.98331C1.55629 51.7202 0.399597 52.8769 0.399597 54.3039V60.7632C0.399597 62.1902 1.55629 63.3469 2.98331 63.3469Z" fill="black"/>
</svg>
