<svg width="73" height="73" viewBox="0 0 73 73" fill="none" xmlns="http://www.w3.org/2000/svg">
<path d="M49.8845 36.172L70.4511 15.6053C72.9749 13.0815 72.9749 8.98956 70.4511 6.46369L65.8803 1.89286C63.3565 -0.630955 59.2645 -0.630955 56.7386 1.89286L36.172 22.4595L15.6053 1.89286C13.0815 -0.630955 8.98956 -0.630955 6.46369 1.89286L1.89286 6.46369C-0.630955 8.98751 -0.630955 13.0795 1.89286 15.6053L22.4595 36.172L1.89286 56.7386C-0.630955 59.2625 -0.630955 63.3544 1.89286 65.8803L6.46369 70.4511C8.98751 72.9749 13.0815 72.9749 15.6053 70.4511L36.172 49.8845L56.7386 70.4511C59.2625 72.9749 63.3565 72.9749 65.8803 70.4511L70.4511 65.8803C72.9749 63.3565 72.9749 59.2645 70.4511 56.7386L49.8845 36.172Z" fill="black"/>
</svg>
